<svg xmlns="http://www.w3.org/2000/svg" xmlns:xlink="http://www.w3.org/1999/xlink" contentStyleType="text/css" data-diagram-type="DESCRIPTION" height="1534px" preserveAspectRatio="none" style="width:2528px;height:1534px;background:#FFFFFF;" version="1.1" viewBox="0 0 2528 1534" width="2528px" zoomAndPan="magnify"><title>Signal Stream - System Overview</title><defs/><g><g class="title" data-source-line="2"><text fill="#000000" font-family="sans-serif" font-size="14" font-weight="bold" lengthAdjust="spacing" textLength="221.7646" x="1146.2946" y="24.5332">Signal Stream - System Overview</text></g><!--cluster Service--><g class="cluster" data-entity="Service" data-source-line="4" data-uid="ent0002" id="cluster_Service"><rect fill="none" height="421.07" rx="2.5" ry="2.5" style="stroke:#181818;stroke-width:1;" width="672" x="1257" y="879.2494"/><text fill="#000000" font-family="sans-serif" font-size="14" font-weight="bold" lengthAdjust="spacing" textLength="81.6963" x="1552.1519" y="895.7826">Source Data</text></g><!--cluster Industrial Protocols--><g class="cluster" data-entity="Industrial Protocols" data-source-line="5" data-uid="ent0003" id="cluster_Industrial Protocols"><path d="M1291.5,931.2494 L1423.9619,931.2494 A3.75,3.75 0 0 1 1426.4619,933.7494 L1433.4619,954.8588 L1529.5,954.8588 A2.5,2.5 0 0 1 1532,957.3588 L1532,1265.8194 A2.5,2.5 0 0 1 1529.5,1268.3194 L1291.5,1268.3194 A2.5,2.5 0 0 1 1289,1265.8194 L1289,933.7494 A2.5,2.5 0 0 1 1291.5,931.2494" fill="none" style="stroke:#000000;stroke-width:1.5;"/><line style="stroke:#000000;stroke-width:1.5;" x1="1289" x2="1433.4619" y1="954.8588" y2="954.8588"/><text fill="#000000" font-family="sans-serif" font-size="14" font-weight="bold" lengthAdjust="spacing" textLength="131.4619" x="1293" y="947.7826">Industrial Protocols</text></g><!--cluster ProjectManager--><g class="cluster" data-entity="ProjectManager" data-source-line="40" data-uid="ent0019" id="cluster_ProjectManager"><rect fill="#778899" height="1057.04" rx="2.5" ry="2.5" style="stroke:#181818;stroke-width:1;" width="1210" x="7" y="471.6394"/><text fill="#000000" font-family="sans-serif" font-size="14" font-weight="bold" lengthAdjust="spacing" textLength="108.9238" x="557.5381" y="488.1726">Project Manager</text></g><!--cluster StorageManager--><g class="cluster" data-entity="StorageManager" data-source-line="41" data-uid="ent0020" id="cluster_StorageManager"><rect fill="none" height="973.04" rx="2.5" ry="2.5" style="stroke:#181818;stroke-width:1;" width="1045" x="39" y="523.6394"/><text fill="#000000" font-family="sans-serif" font-size="14" font-weight="bold" lengthAdjust="spacing" textLength="113.5859" x="504.707" y="540.1726">Storage Manager</text></g><!--cluster Offline Storage--><g class="cluster" data-entity="Offline Storage" data-source-line="43" data-uid="ent0021" id="cluster_Offline Storage"><path d="M65.5,657.6394 L166.8447,657.6394 A3.75,3.75 0 0 1 169.3447,660.1394 L176.3447,681.2488 L673.5,681.2488 A2.5,2.5 0 0 1 676,683.7488 L676,1470.1794 A2.5,2.5 0 0 1 673.5,1472.6794 L65.5,1472.6794 A2.5,2.5 0 0 1 63,1470.1794 L63,660.1394 A2.5,2.5 0 0 1 65.5,657.6394" fill="#F08080" style="stroke:#000000;stroke-width:1.5;"/><line style="stroke:#000000;stroke-width:1.5;" x1="63" x2="176.3447" y1="681.2488" y2="681.2488"/><text fill="#000000" font-family="sans-serif" font-size="14" font-weight="bold" lengthAdjust="spacing" textLength="100.3447" x="67" y="674.1726">Offline Storage</text></g><!--cluster Online Storage--><g class="cluster" data-entity="Online Storage" data-source-line="69" data-uid="ent0039" id="cluster_Online Storage"><path d="M702.5,567.6394 L803.0723,567.6394 A3.75,3.75 0 0 1 805.5723,570.1394 L812.5723,591.2488 L1057.5,591.2488 A2.5,2.5 0 0 1 1060,593.7488 L1060,804.7494 A2.5,2.5 0 0 1 1057.5,807.2494 L702.5,807.2494 A2.5,2.5 0 0 1 700,804.7494 L700,570.1394 A2.5,2.5 0 0 1 702.5,567.6394" fill="#FFFFE0" style="stroke:#000000;stroke-width:1.5;"/><line style="stroke:#000000;stroke-width:1.5;" x1="700" x2="812.5723" y1="591.2488" y2="591.2488"/><text fill="#000000" font-family="sans-serif" font-size="14" font-weight="bold" lengthAdjust="spacing" textLength="99.5723" x="704" y="584.1726">Online Storage</text></g><!--cluster StreamBuffer--><g class="cluster" data-entity="StreamBuffer" data-source-line="71" data-uid="ent0041" id="cluster_StreamBuffer"><path d="M732,629.6394 C732,619.6394 815.5,619.6394 815.5,619.6394 C815.5,619.6394 899,619.6394 899,629.6394 L899,765.2494 C899,775.2494 815.5,775.2494 815.5,775.2494 C815.5,775.2494 732,775.2494 732,765.2494 L732,629.6394" fill="#F5F5F5" style="stroke:#181818;stroke-width:1;"/><path d="M732,629.6394 C732,639.6394 815.5,639.6394 815.5,639.6394 C815.5,639.6394 899,639.6394 899,629.6394" fill="none" style="stroke:#181818;stroke-width:1;"/><text fill="#000000" font-family="sans-serif" font-size="14" font-weight="bold" lengthAdjust="spacing" textLength="92.5791" x="769.2104" y="656.1726">Stream Buffer</text></g><!--cluster User Interface--><g class="cluster" data-entity="User Interface" data-source-line="108" data-uid="ent0050" id="cluster_User Interface"><rect fill="none" height="209.61" rx="2.5" ry="2.5" style="stroke:#181818;stroke-width:1;" width="691" x="1249" y="597.6394"/><text fill="#000000" font-family="sans-serif" font-size="14" font-weight="bold" lengthAdjust="spacing" textLength="93.3789" x="1547.8105" y="614.1726">User Interface</text></g><!--cluster Windows--><g class="cluster" data-entity="Windows" data-source-line="109" data-uid="ent0051" id="cluster_Windows"><rect fill="#90EE90" height="125.61" rx="2.5" ry="2.5" style="stroke:#181818;stroke-width:1;" width="627" x="1281" y="649.6394"/><path d="M1352.4346,649.6394 L1352.4346,660.2488 L1342.4346,670.2488 L1281,670.2488" fill="none" style="stroke:#181818;stroke-width:1;"/><text fill="#000000" font-family="sans-serif" font-size="14" font-weight="bold" lengthAdjust="spacing" textLength="61.4346" x="1284" y="665.1726">Windows</text></g><!--entity BaseService--><g class="entity" data-entity="BaseService" data-source-line="12" data-uid="ent0008" id="entity_BaseService"><rect fill="#F1F1F1" height="37.6094" rx="2.5" ry="2.5" style="stroke:#181818;stroke-width:0.5;" width="102.4824" x="1547.76" y="1214.7094"/><text fill="#000000" font-family="sans-serif" font-size="14" lengthAdjust="spacing" textLength="82.4824" x="1557.76" y="1239.2426">Base Service</text></g><g class="entity" data-entity="GMN9" data-source-line="15" data-uid="ent0010" id="entity_GMN9"><path d="M1685.11,1212.1594 L1685.11,1229.5194 L1650.38,1233.5194 L1685.11,1237.5194 L1685.11,1254.8625 A0,0 0 0 0 1685.11,1254.8625 L1896.8888,1254.8625 A0,0 0 0 0 1896.8888,1254.8625 L1896.8888,1222.1594 L1886.8888,1212.1594 L1685.11,1212.1594 A0,0 0 0 0 1685.11,1212.1594" fill="#FEFFDD" style="stroke:#181818;stroke-width:0.5;"/><path d="M1886.8888,1212.1594 L1886.8888,1222.1594 L1896.8888,1222.1594 L1886.8888,1212.1594" fill="#FEFFDD" style="stroke:#181818;stroke-width:0.5;"/><text fill="#000000" font-family="sans-serif" font-size="13" lengthAdjust="spacing" textLength="190.7788" x="1691.11" y="1230.6545">Source Protocol Adapters extend</text><text fill="#000000" font-family="sans-serif" font-size="13" lengthAdjust="spacing" textLength="127.8926" x="1691.11" y="1247.0061">the base service class</text></g><!--entity SchemaRegistry--><g class="entity" data-entity="SchemaRegistry" data-source-line="19" data-uid="ent0012" id="entity_SchemaRegistry"><ellipse cx="1610" cy="1006.0594" fill="#F1F1F1" rx="8" ry="8" style="stroke:#181818;stroke-width:0.5;"/><text fill="#000000" font-family="sans-serif" font-size="14" lengthAdjust="spacing" textLength="102.7031" x="1558.6484" y="1037.5926">SchemaRegistry</text></g><!--entity Instance--><g class="entity" data-entity="Instance" data-source-line="20" data-uid="ent0014" id="entity_Instance"><ellipse cx="1738" cy="1006.0594" fill="#F1F1F1" rx="8" ry="8" style="stroke:#181818;stroke-width:0.5;"/><text fill="#000000" font-family="sans-serif" font-size="14" lengthAdjust="spacing" textLength="52.9238" x="1711.5381" y="1037.5926">Instance</text></g><!--entity OPC UA--><g class="entity" data-entity="OPC UA" data-source-line="6" data-uid="ent0004" id="entity_OPC UA"><rect fill="#F1F1F1" height="37.6094" rx="2.5" ry="2.5" style="stroke:#181818;stroke-width:0.5;" width="73.6758" x="1305.16" y="987.2494"/><text fill="#000000" font-family="sans-serif" font-size="14" lengthAdjust="spacing" textLength="53.6758" x="1315.16" y="1011.7826">OPC UA</text></g><!--entity Modbus TCP--><g class="entity" data-entity="Modbus TCP" data-source-line="7" data-uid="ent0005" id="entity_Modbus TCP"><rect fill="#F1F1F1" height="37.6094" rx="2.5" ry="2.5" style="stroke:#181818;stroke-width:0.5;" width="101.6963" x="1414.15" y="987.2494"/><text fill="#000000" font-family="sans-serif" font-size="14" lengthAdjust="spacing" textLength="81.6963" x="1424.15" y="1011.7826">Modbus TCP</text></g><!--entity MQTT--><g class="entity" data-entity="MQTT" data-source-line="8" data-uid="ent0006" id="entity_MQTT"><rect fill="#F1F1F1" height="37.6094" rx="2.5" ry="2.5" style="stroke:#181818;stroke-width:0.5;" width="59.6553" x="1312.17" y="1214.7094"/><text fill="#000000" font-family="sans-serif" font-size="14" lengthAdjust="spacing" textLength="39.6553" x="1322.17" y="1239.2426">MQTT</text></g><!--entity Serial--><g class="entity" data-entity="Serial" data-source-line="9" data-uid="ent0007" id="entity_Serial"><rect fill="#F1F1F1" height="37.6094" rx="2.5" ry="2.5" style="stroke:#181818;stroke-width:0.5;" width="55.793" x="1407.1" y="1214.7094"/><text fill="#000000" font-family="sans-serif" font-size="14" lengthAdjust="spacing" textLength="35.793" x="1417.1" y="1239.2426">Serial</text></g><!--entity services--><g class="entity" data-entity="services" data-source-line="82" data-uid="ent0046" id="entity_services"><rect fill="#F1F1F1" height="33.6094" rx="2.5" ry="2.5" style="stroke:#181818;stroke-width:0.5;" width="69.6826" x="1104.16" y="717.6394"/><rect fill="#F1F1F1" height="33.6094" rx="2.5" ry="2.5" style="stroke:#181818;stroke-width:0.5;" width="69.6826" x="1100.16" y="713.6394"/><text fill="#000000" font-family="sans-serif" font-size="14" lengthAdjust="spacing" textLength="53.6826" x="1108.16" y="736.1726">Services</text></g><!--entity BufferHandle--><g class="entity" data-entity="BufferHandle" data-source-line="78" data-uid="ent0044" id="entity_BufferHandle"><rect fill="#F1F1F1" height="37.6094" rx="2.5" ry="2.5" style="stroke:#181818;stroke-width:0.5;" width="105.6064" x="838.2" y="987.2494"/><text fill="#000000" font-family="sans-serif" font-size="14" lengthAdjust="spacing" textLength="85.6064" x="848.2" y="1011.7826">Buffer Handle</text></g><!--entity OfflineDataStorage--><g class="entity" data-entity="OfflineDataStorage" data-source-line="44" data-uid="ent0022" id="entity_OfflineDataStorage"><rect fill="#F1F1F1" height="37.6094" rx="2.5" ry="2.5" style="stroke:#181818;stroke-width:0.5;" width="113.3857" x="280.31" y="713.6394"/><text fill="#000000" font-family="sans-serif" font-size="14" lengthAdjust="spacing" textLength="93.3857" x="290.31" y="738.1726">Offline Storage</text></g><!--entity IBackend--><g class="entity" data-entity="IBackend" data-source-line="46" data-uid="ent0023" id="entity_IBackend"><ellipse cx="337" cy="1006.0594" fill="#F1F1F1" rx="8" ry="8" style="stroke:#181818;stroke-width:0.5;"/><text fill="#000000" font-family="sans-serif" font-size="14" lengthAdjust="spacing" textLength="107.4063" x="283.2969" y="1037.5926">IStorageBackend</text></g><g class="entity" data-entity="GMN24" data-source-line="48" data-uid="ent0025" id="entity_GMN24"><path d="M381.47,992.8794 L381.47,1002.0594 L346.37,1006.0594 L381.47,1010.0594 L381.47,1019.2309 A0,0 0 0 0 381.47,1019.2309 L566.5315,1019.2309 A0,0 0 0 0 566.5315,1019.2309 L566.5315,1002.8794 L556.5315,992.8794 L381.47,992.8794 A0,0 0 0 0 381.47,992.8794" fill="#FEFFDD" style="stroke:#181818;stroke-width:0.5;"/><path d="M556.5315,992.8794 L556.5315,1002.8794 L566.5315,1002.8794 L556.5315,992.8794" fill="#FEFFDD" style="stroke:#181818;stroke-width:0.5;"/><text fill="#000000" font-family="sans-serif" font-size="13" lengthAdjust="spacing" textLength="164.0615" x="387.47" y="1011.3745">Pluggable backend interface</text></g><!--entity ParquetBackend--><g class="entity" data-entity="ParquetBackend" data-source-line="51" data-uid="ent0027" id="entity_ParquetBackend"><rect fill="#98FB98" height="37.6094" rx="2.5" ry="2.5" style="stroke:#181818;stroke-width:0.5;" width="127.4063" x="79.3" y="1214.7094"/><text fill="#000000" font-family="sans-serif" font-size="14" lengthAdjust="spacing" textLength="107.4063" x="89.3" y="1239.2426">Parquet Backend</text></g><!--entity HDF5Backend--><g class="entity" data-entity="HDF5Backend" data-source-line="52" data-uid="ent0028" id="entity_HDF5Backend"><rect fill="#AFEEEE" height="37.6094" rx="2.5" ry="2.5" style="stroke:#181818;stroke-width:0.5;" width="114.9307" x="241.53" y="1214.7094"/><text fill="#000000" font-family="sans-serif" font-size="14" lengthAdjust="spacing" textLength="94.9307" x="251.53" y="1239.2426">HDF5 Backend</text></g><!--entity CSVBackend--><g class="entity" data-entity="CSVBackend" data-source-line="53" data-uid="ent0029" id="entity_CSVBackend"><rect fill="#F5DEB3" height="37.6094" rx="2.5" ry="2.5" style="stroke:#181818;stroke-width:0.5;" width="107.1582" x="391.42" y="1214.7094"/><text fill="#000000" font-family="sans-serif" font-size="14" lengthAdjust="spacing" textLength="87.1582" x="401.42" y="1239.2426">CSV Backend</text></g><!--entity CustomBackend--><g class="entity" data-entity="CustomBackend" data-source-line="54" data-uid="ent0030" id="entity_CustomBackend"><rect fill="#E6E6FA" height="37.6094" rx="2.5" ry="2.5" style="stroke:#181818;stroke-width:0.5;" width="126.6064" x="533.7" y="1214.7094"/><text fill="#000000" font-family="sans-serif" font-size="14" lengthAdjust="spacing" textLength="106.6064" x="543.7" y="1239.2426">Custom Backend</text></g><g class="entity" data-entity="GMN36" data-source-line="63" data-uid="ent0037" id="entity_GMN36"><path d="M78.92,1413.9794 L78.92,1456.6825 A0,0 0 0 0 78.92,1456.6825 L253.0763,1456.6825 A0,0 0 0 0 253.0763,1456.6825 L253.0763,1423.9794 L243.0763,1413.9794 L167.63,1413.9794 L145.08,1252.5994 L159.63,1413.9794 L78.92,1413.9794 A0,0 0 0 0 78.92,1413.9794" fill="#FEFFDD" style="stroke:#181818;stroke-width:0.5;"/><path d="M243.0763,1413.9794 L243.0763,1423.9794 L253.0763,1423.9794 L243.0763,1413.9794" fill="#FEFFDD" style="stroke:#181818;stroke-width:0.5;"/><text fill="#000000" font-family="sans-serif" font-size="13" lengthAdjust="spacing" textLength="153.1563" x="84.92" y="1432.4745">Zero-copy columnar writes</text><text fill="#000000" font-family="sans-serif" font-size="13" lengthAdjust="spacing" textLength="132.939" x="84.92" y="1448.8261">via Arrow RecordBatch</text></g><!--entity StreamHolders--><g class="entity" data-entity="StreamHolders" data-source-line="70" data-uid="ent0040" id="entity_StreamHolders"><rect fill="#F1F1F1" height="33.6094" rx="2.5" ry="2.5" style="stroke:#181818;stroke-width:0.5;" width="113.2549" x="930.37" y="717.6394"/><rect fill="#F1F1F1" height="33.6094" rx="2.5" ry="2.5" style="stroke:#181818;stroke-width:0.5;" width="113.2549" x="926.37" y="713.6394"/><text fill="#000000" font-family="sans-serif" font-size="14" lengthAdjust="spacing" textLength="97.2549" x="934.37" y="736.1726">Stream Holders</text></g><!--entity SignalBuffer--><g class="entity" data-entity="SignalBuffer" data-source-line="72" data-uid="ent0042" id="entity_SignalBuffer"><rect fill="#F1F1F1" height="33.6094" rx="2.5" ry="2.5" style="stroke:#181818;stroke-width:0.5;" width="96.1582" x="759.92" y="717.6394"/><rect fill="#F1F1F1" height="33.6094" rx="2.5" ry="2.5" style="stroke:#181818;stroke-width:0.5;" width="96.1582" x="755.92" y="713.6394"/><text fill="#000000" font-family="sans-serif" font-size="14" lengthAdjust="spacing" textLength="80.1582" x="763.92" y="736.1726">Signal Buffer</text></g><!--entity SignalBrowser--><g class="entity" data-entity="SignalBrowser" data-source-line="113" data-uid="ent0052" id="entity_SignalBrowser"><rect fill="#F1F1F1" height="37.6094" rx="2.5" ry="2.5" style="stroke:#181818;stroke-width:0.5;" width="114.1514" x="1304.92" y="713.6394"/><text fill="#000000" font-family="sans-serif" font-size="14" lengthAdjust="spacing" textLength="94.1514" x="1314.92" y="738.1726">Signal Browser</text></g><!--entity LiveView--><g class="entity" data-entity="LiveView" data-source-line="114" data-uid="ent0053" id="entity_LiveView"><rect fill="#F1F1F1" height="37.6094" rx="2.5" ry="2.5" style="stroke:#181818;stroke-width:0.5;" width="79.917" x="1454.04" y="713.6394"/><text fill="#000000" font-family="sans-serif" font-size="14" lengthAdjust="spacing" textLength="59.917" x="1464.04" y="738.1726">Live View</text></g><!--entity FPS--><g class="entity" data-entity="FPS" data-source-line="115" data-uid="ent0054" id="entity_FPS"><rect fill="#F1F1F1" height="37.6094" rx="2.5" ry="2.5" style="stroke:#181818;stroke-width:0.5;" width="47.2275" x="1569.39" y="713.6394"/><text fill="#000000" font-family="sans-serif" font-size="14" lengthAdjust="spacing" textLength="27.2275" x="1579.39" y="738.1726">FPS</text></g><!--entity AnalysisView--><g class="entity" data-entity="AnalysisView" data-source-line="116" data-uid="ent0055" id="entity_AnalysisView"><rect fill="#F1F1F1" height="37.6094" rx="2.5" ry="2.5" style="stroke:#181818;stroke-width:0.5;" width="106.3652" x="1651.82" y="713.6394"/><text fill="#000000" font-family="sans-serif" font-size="14" lengthAdjust="spacing" textLength="86.3652" x="1661.82" y="738.1726">Analysis View</text></g><!--entity Console--><g class="entity" data-entity="Console" data-source-line="117" data-uid="ent0056" id="entity_Console"><rect fill="#F1F1F1" height="37.6094" rx="2.5" ry="2.5" style="stroke:#181818;stroke-width:0.5;" width="71.3652" x="1793.32" y="713.6394"/><text fill="#000000" font-family="sans-serif" font-size="14" lengthAdjust="spacing" textLength="51.3652" x="1803.32" y="738.1726">Console</text></g><g class="entity" data-entity="GMN16" data-source-line="24" data-uid="ent0017" id="entity_GMN16"><path d="M1952.64,1114.0594 L1952.64,1352.9813 L2521.3539,1352.9813 L2521.3539,1124.0594 L2511.3539,1114.0594 L1952.64,1114.0594" fill="#FEFFDD" style="stroke:#181818;stroke-width:0.5;"/><path d="M2511.3539,1114.0594 L2511.3539,1124.0594 L2521.3539,1124.0594 L2511.3539,1114.0594" fill="#FEFFDD" style="stroke:#181818;stroke-width:1;"/><text fill="#000000" font-family="sans-serif" font-size="13" font-weight="bold" lengthAdjust="spacing" textLength="46.2617" x="1958.64" y="1132.5545">Service</text><text fill="#000000" font-family="sans-serif" font-size="13" lengthAdjust="spacing" textLength="547.7139" x="1958.64" y="1148.9061">Runtime producer &#8212; process/module that connects to a data source or performs computations.</text><text fill="#000000" font-family="sans-serif" font-size="13" lengthAdjust="spacing" textLength="286.127" x="1958.64" y="1165.2576">Managed by ProjectManager (start/stop lifecycle).</text><text fill="#000000" font-family="sans-serif" font-size="13" lengthAdjust="spacing" textLength="176.2998" x="1958.64" y="1181.6092">Can produce multiple streams.</text><text fill="#000000" font-family="sans-serif" font-size="13" font-weight="bold" lengthAdjust="spacing" textLength="44.0781" x="1958.64" y="1197.9607">Stream</text><text fill="#000000" font-family="sans-serif" font-size="13" lengthAdjust="spacing" textLength="208.1143" x="1958.64" y="1214.3123">Logical data channel from a service.</text><text fill="#000000" font-family="sans-serif" font-size="13" lengthAdjust="spacing" textLength="417.606" x="1958.64" y="1230.6639">Registered in StreamRegistry with metadata (schema, rate, fidelity, etc.).</text><text fill="#000000" font-family="sans-serif" font-size="13" lengthAdjust="spacing" textLength="334.5278" x="1958.64" y="1247.0154">Can contain multiple signals (columns, metrics, channels).</text><text fill="#000000" font-family="sans-serif" font-size="13" font-weight="bold" lengthAdjust="spacing" textLength="39.0063" x="1958.64" y="1263.367">Signal</text><text fill="#000000" font-family="sans-serif" font-size="13" lengthAdjust="spacing" textLength="488.4585" x="1958.64" y="1279.7186">Atomic data field within a stream &#8212; e.g., a single measurement, variable, or channel.</text><text fill="#000000" font-family="sans-serif" font-size="13" lengthAdjust="spacing" textLength="60.6899" x="1958.64" y="1296.0701">Examples:</text><text fill="#000000" font-family="sans-serif" font-size="13" lengthAdjust="spacing" textLength="355.1641" x="1958.64" y="1312.4217">temperature_stream &#8594; signals: temp_sensor1, temp_sensor2</text><text fill="#000000" font-family="sans-serif" font-size="13" lengthAdjust="spacing" textLength="371.8076" x="1958.64" y="1328.7732">high_fidelity_stream &#8594; signals: x_position, y_position, z_position</text><text fill="#000000" font-family="sans-serif" font-size="13" lengthAdjust="spacing" textLength="350.4287" x="1958.64" y="1345.1248">Signals share the same timestamp space within their stream.</text></g><g class="entity" data-entity="GMN47" data-source-line="86" data-uid="ent0048" id="entity_GMN47"><path d="M1047.5,44.6094 L1047.5,385.6406 L1370.4961,385.6406 L1370.4961,54.6094 L1360.4961,44.6094 L1047.5,44.6094" fill="#FEFFDD" style="stroke:#181818;stroke-width:0.5;"/><path d="M1360.4961,44.6094 L1360.4961,54.6094 L1370.4961,54.6094 L1360.4961,44.6094" fill="#FEFFDD" style="stroke:#181818;stroke-width:1;"/><text fill="#000000" font-family="sans-serif" font-size="13" lengthAdjust="spacing" textLength="91.7681" x="1053.5" y="63.1045">ProjectManager</text><text fill="#000000" font-family="sans-serif" font-size="13" lengthAdjust="spacing" textLength="276.0088" x="1075.1118" y="81.4561">Manages Stream Lifecycle (start/stop/configure)</text><text fill="#000000" font-family="sans-serif" font-size="13" lengthAdjust="spacing" textLength="105.498" x="1075.1118" y="97.8076">Stream Instance 1</text><text fill="#000000" font-family="sans-serif" font-size="13" lengthAdjust="spacing" textLength="145.228" x="1083.1118" y="114.1592">Owns Service Instance A</text><text fill="#000000" font-family="sans-serif" font-size="13" lengthAdjust="spacing" textLength="128.9209" x="1083.1118" y="130.5107">Produces Signal Set &#945;</text><text fill="#000000" font-family="sans-serif" font-size="13" lengthAdjust="spacing" textLength="220.7397" x="1083.1118" y="146.8623">Registers metadata &#8594; StreamRegistry</text><text fill="#000000" font-family="sans-serif" font-size="13" lengthAdjust="spacing" textLength="105.498" x="1075.1118" y="163.2139">Stream Instance 2</text><text fill="#000000" font-family="sans-serif" font-size="13" lengthAdjust="spacing" textLength="260.1206" x="1083.1118" y="179.5654">Owns Service Instance A (separate instance)</text><text fill="#000000" font-family="sans-serif" font-size="13" lengthAdjust="spacing" textLength="128.8828" x="1083.1118" y="195.917">Produces Signal Set &#946;</text><text fill="#000000" font-family="sans-serif" font-size="13" lengthAdjust="spacing" textLength="220.7397" x="1083.1118" y="212.2686">Registers metadata &#8594; StreamRegistry</text><text fill="#000000" font-family="sans-serif" font-size="13" lengthAdjust="spacing" textLength="105.498" x="1075.1118" y="228.6201">Stream Instance 3</text><text fill="#000000" font-family="sans-serif" font-size="13" lengthAdjust="spacing" textLength="145.228" x="1083.1118" y="244.9717">Owns Service Instance B</text><text fill="#000000" font-family="sans-serif" font-size="13" lengthAdjust="spacing" textLength="127.9053" x="1083.1118" y="261.3232">Produces Signal Set &#947;</text><text fill="#000000" font-family="sans-serif" font-size="13" lengthAdjust="spacing" textLength="220.7397" x="1083.1118" y="277.6748">Registers metadata &#8594; StreamRegistry</text><text fill="#000000" font-family="sans-serif" font-size="13" lengthAdjust="spacing" textLength="89.5781" x="1075.1118" y="294.0264">StreamRegistry</text><text fill="#000000" font-family="sans-serif" font-size="13" lengthAdjust="spacing" textLength="187.5098" x="1083.1118" y="310.3779">Stores stream + signal metadata</text><text fill="#000000" font-family="sans-serif" font-size="13" lengthAdjust="spacing" textLength="272.3843" x="1083.1118" y="326.7295">Emits events (stream started, signals available)</text><text fill="#000000" font-family="sans-serif" font-size="13" lengthAdjust="spacing" textLength="158.6279" x="1083.1118" y="343.0811">Notifies &#8594; StorageManager</text><text fill="#000000" font-family="sans-serif" font-size="13" lengthAdjust="spacing" textLength="161.8462" x="1091.1118" y="359.4326">Allocates buffers per stream</text><text fill="#000000" font-family="sans-serif" font-size="13" lengthAdjust="spacing" textLength="216.7852" x="1099.1118" y="375.7842">Buffers contain signals under schema</text><rect fill="#FEFFDD" height="2" style="stroke:#000000;stroke-width:1;" width="2" x="1068.5" y="75.1367"/><line style="stroke:#000000;stroke-width:1;" x1="1061.5" x2="1069.5" y1="76.1367" y2="76.1367"/><line style="stroke:#000000;stroke-width:1;" x1="1061.5" x2="1061.5" y1="67.9609" y2="76.1367"/><rect fill="#FEFFDD" height="2" style="stroke:#000000;stroke-width:1;" width="2" x="1068.5" y="91.4883"/><line style="stroke:#000000;stroke-width:1;" x1="1061.5" x2="1069.5" y1="92.4883" y2="92.4883"/><line style="stroke:#000000;stroke-width:1;" x1="1061.5" x2="1061.5" y1="76.1367" y2="92.4883"/><rect fill="#FEFFDD" height="2" style="stroke:#000000;stroke-width:1;" width="2" x="1076.5" y="107.8398"/><line style="stroke:#000000;stroke-width:1;" x1="1069.5" x2="1077.5" y1="108.8398" y2="108.8398"/><line style="stroke:#000000;stroke-width:1;" x1="1069.5" x2="1069.5" y1="92.4883" y2="108.8398"/><rect fill="#FEFFDD" height="2" style="stroke:#000000;stroke-width:1;" width="2" x="1076.5" y="124.1914"/><line style="stroke:#000000;stroke-width:1;" x1="1069.5" x2="1077.5" y1="125.1914" y2="125.1914"/><line style="stroke:#000000;stroke-width:1;" x1="1069.5" x2="1069.5" y1="108.8398" y2="125.1914"/><rect fill="#FEFFDD" height="2" style="stroke:#000000;stroke-width:1;" width="2" x="1076.5" y="140.543"/><line style="stroke:#000000;stroke-width:1;" x1="1069.5" x2="1077.5" y1="141.543" y2="141.543"/><line style="stroke:#000000;stroke-width:1;" x1="1069.5" x2="1069.5" y1="125.1914" y2="141.543"/><rect fill="#FEFFDD" height="2" style="stroke:#000000;stroke-width:1;" width="2" x="1068.5" y="156.8945"/><line style="stroke:#000000;stroke-width:1;" x1="1061.5" x2="1069.5" y1="157.8945" y2="157.8945"/><line style="stroke:#000000;stroke-width:1;" x1="1061.5" x2="1061.5" y1="92.4883" y2="157.8945"/><rect fill="#FEFFDD" height="2" style="stroke:#000000;stroke-width:1;" width="2" x="1076.5" y="173.2461"/><line style="stroke:#000000;stroke-width:1;" x1="1069.5" x2="1077.5" y1="174.2461" y2="174.2461"/><line style="stroke:#000000;stroke-width:1;" x1="1069.5" x2="1069.5" y1="157.8945" y2="174.2461"/><rect fill="#FEFFDD" height="2" style="stroke:#000000;stroke-width:1;" width="2" x="1076.5" y="189.5977"/><line style="stroke:#000000;stroke-width:1;" x1="1069.5" x2="1077.5" y1="190.5977" y2="190.5977"/><line style="stroke:#000000;stroke-width:1;" x1="1069.5" x2="1069.5" y1="174.2461" y2="190.5977"/><rect fill="#FEFFDD" height="2" style="stroke:#000000;stroke-width:1;" width="2" x="1076.5" y="205.9492"/><line style="stroke:#000000;stroke-width:1;" x1="1069.5" x2="1077.5" y1="206.9492" y2="206.9492"/><line style="stroke:#000000;stroke-width:1;" x1="1069.5" x2="1069.5" y1="190.5977" y2="206.9492"/><rect fill="#FEFFDD" height="2" style="stroke:#000000;stroke-width:1;" width="2" x="1068.5" y="222.3008"/><line style="stroke:#000000;stroke-width:1;" x1="1061.5" x2="1069.5" y1="223.3008" y2="223.3008"/><line style="stroke:#000000;stroke-width:1;" x1="1061.5" x2="1061.5" y1="157.8945" y2="223.3008"/><rect fill="#FEFFDD" height="2" style="stroke:#000000;stroke-width:1;" width="2" x="1076.5" y="238.6523"/><line style="stroke:#000000;stroke-width:1;" x1="1069.5" x2="1077.5" y1="239.6523" y2="239.6523"/><line style="stroke:#000000;stroke-width:1;" x1="1069.5" x2="1069.5" y1="223.3008" y2="239.6523"/><rect fill="#FEFFDD" height="2" style="stroke:#000000;stroke-width:1;" width="2" x="1076.5" y="255.0039"/><line style="stroke:#000000;stroke-width:1;" x1="1069.5" x2="1077.5" y1="256.0039" y2="256.0039"/><line style="stroke:#000000;stroke-width:1;" x1="1069.5" x2="1069.5" y1="239.6523" y2="256.0039"/><rect fill="#FEFFDD" height="2" style="stroke:#000000;stroke-width:1;" width="2" x="1076.5" y="271.3555"/><line style="stroke:#000000;stroke-width:1;" x1="1069.5" x2="1077.5" y1="272.3555" y2="272.3555"/><line style="stroke:#000000;stroke-width:1;" x1="1069.5" x2="1069.5" y1="256.0039" y2="272.3555"/><rect fill="#FEFFDD" height="2" style="stroke:#000000;stroke-width:1;" width="2" x="1068.5" y="287.707"/><line style="stroke:#000000;stroke-width:1;" x1="1061.5" x2="1069.5" y1="288.707" y2="288.707"/><line style="stroke:#000000;stroke-width:1;" x1="1061.5" x2="1061.5" y1="223.3008" y2="288.707"/><rect fill="#FEFFDD" height="2" style="stroke:#000000;stroke-width:1;" width="2" x="1076.5" y="304.0586"/><line style="stroke:#000000;stroke-width:1;" x1="1069.5" x2="1077.5" y1="305.0586" y2="305.0586"/><line style="stroke:#000000;stroke-width:1;" x1="1069.5" x2="1069.5" y1="288.707" y2="305.0586"/><rect fill="#FEFFDD" height="2" style="stroke:#000000;stroke-width:1;" width="2" x="1076.5" y="320.4102"/><line style="stroke:#000000;stroke-width:1;" x1="1069.5" x2="1077.5" y1="321.4102" y2="321.4102"/><line style="stroke:#000000;stroke-width:1;" x1="1069.5" x2="1069.5" y1="305.0586" y2="321.4102"/><rect fill="#FEFFDD" height="2" style="stroke:#000000;stroke-width:1;" width="2" x="1076.5" y="336.7617"/><line style="stroke:#000000;stroke-width:1;" x1="1069.5" x2="1077.5" y1="337.7617" y2="337.7617"/><line style="stroke:#000000;stroke-width:1;" x1="1069.5" x2="1069.5" y1="321.4102" y2="337.7617"/><rect fill="#FEFFDD" height="2" style="stroke:#000000;stroke-width:1;" width="2" x="1084.5" y="353.1133"/><line style="stroke:#000000;stroke-width:1;" x1="1077.5" x2="1085.5" y1="354.1133" y2="354.1133"/><line style="stroke:#000000;stroke-width:1;" x1="1077.5" x2="1077.5" y1="337.7617" y2="354.1133"/><rect fill="#FEFFDD" height="2" style="stroke:#000000;stroke-width:1;" width="2" x="1092.5" y="369.4648"/><line style="stroke:#000000;stroke-width:1;" x1="1085.5" x2="1093.5" y1="370.4648" y2="370.4648"/><line style="stroke:#000000;stroke-width:1;" x1="1085.5" x2="1085.5" y1="354.1133" y2="370.4648"/></g><!--link SchemaRegistry to BaseService--><g class="link" data-entity-1="SchemaRegistry" data-entity-2="BaseService" data-source-line="19" data-uid="lnk13" id="link_SchemaRegistry_BaseService"><path d="M1609.62,1014.8194 C1608.06,1046.7194 1602.4328,1162.2465 1600.1728,1208.5065" fill="none" id="SchemaRegistry-to-BaseService" style="stroke:#181818;stroke-width:1;"/><polygon fill="#181818" points="1599.88,1214.4994,1604.3144,1205.7053,1600.124,1209.5053,1596.3239,1205.3149,1599.88,1214.4994" style="stroke:#181818;stroke-width:1;"/></g><!--link Instance to BaseService--><g class="link" data-entity-1="Instance" data-entity-2="BaseService" data-source-line="20" data-uid="lnk15" id="link_Instance_BaseService"><path d="M1732.59,1015.0194 C1720.64,1032.6594 1691.22,1076.4694 1668,1114.0594 C1646.36,1149.0794 1625.412,1185.6458 1612.182,1209.0558" fill="none" id="Instance-to-BaseService" style="stroke:#181818;stroke-width:1;"/><polygon fill="#181818" points="1609.23,1214.2794,1617.1404,1208.4121,1611.69,1209.9264,1610.1757,1204.476,1609.23,1214.2794" style="stroke:#181818;stroke-width:1;"/><text fill="#000000" font-family="sans-serif" font-size="13" lengthAdjust="spacing" textLength="88.8799" x="1699.17" y="1080.5545">sample storage</text></g><!--link Service to GMN16--><g class="link" data-entity-1="Service" data-entity-2="GMN16" data-source-line="24" data-uid="lnk18" id="link_Service_GMN16"><path d="M1929.2868,1012.9668 C1930.9207,1014.1324 1932.7782,1015.4575 1934.8428,1016.9305 C1943.1013,1022.8222 1954.6738,1031.0788 1968.51,1040.9506 C1996.1825,1060.6944 2032.91,1086.8994 2070.29,1113.5694" fill="none" id="Service-GMN16" style="stroke:#181818;stroke-width:1;stroke-dasharray:7,7;"/></g><!--link OfflineDataStorage to IBackend--><g class="link" data-entity-1="OfflineDataStorage" data-entity-2="IBackend" data-source-line="56" data-uid="lnk31" id="link_OfflineDataStorage_IBackend"><path d="M332.02,751.4994 C327.33,769.5094 320.64,798.0494 318,823.2494 C311,890.1594 327.2026,965.0992 333.4726,990.8892" fill="none" id="OfflineDataStorage-to-IBackend" style="stroke:#181818;stroke-width:1;"/><polygon fill="#181818" points="334.89,996.7194,336.6507,987.0292,333.7088,991.8609,328.8771,988.9191,334.89,996.7194" style="stroke:#181818;stroke-width:1;"/><text fill="#000000" font-family="sans-serif" font-size="13" lengthAdjust="spacing" textLength="27.46" x="319" y="844.7445">uses</text></g><!--reverse link IBackend to ParquetBackend--><g class="link" data-entity-1="IBackend" data-entity-2="ParquetBackend" data-source-line="57" data-uid="lnk32" id="link_IBackend_ParquetBackend"><path d="M313.7263,1026.2838 C293.4863,1043.1038 258.72,1073.3494 224,1114.0594 C195.71,1147.2294 168.24,1190.3994 153.7,1214.4094" fill="none" id="IBackend-backto-ParquetBackend" style="stroke:#181818;stroke-width:1;stroke-dasharray:7,7;"/><polygon fill="none" points="327.57,1014.7794,309.8915,1021.6693,317.5612,1030.8984,327.57,1014.7794" style="stroke:#181818;stroke-width:1;"/></g><!--reverse link IBackend to HDF5Backend--><g class="link" data-entity-1="IBackend" data-entity-2="HDF5Backend" data-source-line="58" data-uid="lnk33" id="link_IBackend_HDF5Backend"><path d="M332.61,1033.0993 C327.11,1065.7493 309.85,1168.1694 302.07,1214.3094" fill="none" id="IBackend-backto-HDF5Backend" style="stroke:#181818;stroke-width:1;stroke-dasharray:7,7;"/><polygon fill="none" points="335.6,1015.3494,326.6933,1032.1026,338.5266,1034.096,335.6,1015.3494" style="stroke:#181818;stroke-width:1;"/></g><!--reverse link IBackend to CSVBackend--><g class="link" data-entity-1="IBackend" data-entity-2="CSVBackend" data-source-line="59" data-uid="lnk34" id="link_IBackend_CSVBackend"><path d="M348.7462,1031.583 C364.3862,1064.233 414.18,1168.1694 436.28,1214.3094" fill="none" id="IBackend-backto-CSVBackend" style="stroke:#181818;stroke-width:1;stroke-dasharray:7,7;"/><polygon fill="none" points="340.97,1015.3494,343.335,1034.1751,354.1574,1028.9909,340.97,1015.3494" style="stroke:#181818;stroke-width:1;"/></g><!--reverse link IBackend to CustomBackend--><g class="link" data-entity-1="IBackend" data-entity-2="CustomBackend" data-source-line="60" data-uid="lnk35" id="link_IBackend_CustomBackend"><path d="M354.8385,1029.3586 C359.9285,1035.5886 356.1,1030.0794 364,1036.0594 C424.56,1081.8594 459.04,1063.8394 516,1114.0594 C549.26,1143.3794 575.43,1189.1994 588.29,1214.3894" fill="none" id="IBackend-backto-CustomBackend" style="stroke:#181818;stroke-width:1;stroke-dasharray:7,7;"/><polygon fill="none" points="343.45,1015.4194,350.1921,1033.1548,359.4849,1025.5624,343.45,1015.4194" style="stroke:#181818;stroke-width:1;"/></g><!--link StreamHolders to StreamBuffer--><g class="link" data-entity-1="StreamHolders" data-entity-2="StreamBuffer" data-source-line="75" data-uid="lnk43" id="link_StreamHolders_StreamBuffer"><path d="M925.98,732.4494 C920.275,732.4494 914.5675,732.4494 908.8588,732.4494 C906.0044,732.4494 903.1497,732.4494 900.2948,732.4494 C899.938,732.4494 899.5811,732.4494 899.2243,732.4494 C899.1797,732.4494 905.1351,732.4494 905.0904,732.4494" fill="none" id="StreamHolders-to-StreamBuffer" style="stroke:#181818;stroke-width:1;"/><polygon fill="#181818" points="899.0904,732.4494,908.0904,736.4494,904.0904,732.4494,908.0904,728.4494,899.0904,732.4494" style="stroke:#181818;stroke-width:1;"/></g><!--link StreamBuffer to BufferHandle--><g class="link" data-entity-1="StreamBuffer" data-entity-2="BufferHandle" data-source-line="79" data-uid="lnk45" id="link_StreamBuffer_BufferHandle"><path d="M891,775.6537 C891,776.3169 891,776.986 891,777.6607 C891,779.0101 891,780.382 891,781.7754 C891,787.3489 891,793.2646 891,799.4453 C891,811.8066 891,825.2278 891,839.0906 C891,894.5419 891,951.0594 891,981.0794" fill="none" id="StreamBuffer-to-BufferHandle" style="stroke:#181818;stroke-width:1;"/><polygon fill="#181818" points="891,987.0794,895,978.0794,891,982.0794,887,978.0794,891,987.0794" style="stroke:#181818;stroke-width:1;"/></g><!--link GMN47 to ProjectManager--><g class="link" data-entity-1="GMN47" data-entity-2="ProjectManager" data-source-line="86" data-uid="lnk49" id="link_GMN47_ProjectManager"><path d="M1209,385.9294 C1209,404.4044 1209,423.5641 1209,442.9602 C1209,447.8093 1209,452.6731 1209,457.5447 C1209,459.9805 1209,462.4182 1209,464.857 C1209,466.0764 1209,467.2961 1209,468.5159 C1209,469.1258 1209,469.7358 1209,470.3458" fill="none" id="GMN47-ProjectManager" style="stroke:#181818;stroke-width:1;stroke-dasharray:7,7;"/></g><!--link Windows to SignalBrowser--><!--link Windows to LiveView--><!--link Windows to FPS--><!--link Windows to AnalysisView--><!--link Windows to Console--><!--reverse link ProjectManager to Windows--><g class="link" data-entity-1="ProjectManager" data-entity-2="Windows" data-source-line="127" data-uid="lnk63" id="link_ProjectManager_Windows"><path d="M1218.3655,623.9714 C1218.6785,622.4243 1218.0634,625.5972 1218.3986,624.0408 C1219.0691,620.9281 1219.7847,617.7989 1220.5485,614.6607 C1222.0761,608.3843 1223.7962,602.0719 1225.7325,595.7833 C1229.6049,583.2061 1234.3417,570.7244 1240.1309,558.8175 C1251.7094,535.0038 1267.4975,513.4894 1289,498.1094 C1396,421.5694 1784.29,408.9194 1881,498.1094 C1917.905,532.1444 1923.7325,587.5694 1919.8263,635.9731 C1917.8731,660.175 1913.4866,682.6216 1909.3345,699.7614 C1909.075,700.8326 1908.8164,701.8832 1908.5594,702.9121 C1908.4309,703.4265 1908.3028,703.9356 1908.1752,704.4391" fill="none" id="ProjectManager-backto-Windows" style="stroke:#181818;stroke-width:1;"/><polygon fill="#181818" points="1217.1938,629.8559,1222.8743,621.8103,1218.1702,624.9522,1215.0283,620.2481,1217.1938,629.8559" style="stroke:#181818;stroke-width:1;"/><text fill="#000000" font-family="sans-serif" font-size="13" lengthAdjust="spacing" textLength="109.1162" x="1511.5" y="437.1345">Open/Save Project</text><ellipse cx="1588.8587" cy="435.9606" fill="#FFFFFF" rx="10" ry="10" style="stroke:#FFFFFF;stroke-width:1;"/><path d="M1596.0205,442.9399 A10,10 0 0 0 1595.838 428.7989" fill="none" style="stroke:#181818;stroke-width:1.5;"/><path d="M1581.697,428.9814 A10,10 0 0 0 1581.8795 443.1223" fill="none" style="stroke:#181818;stroke-width:1.5;"/><ellipse cx="1588.8587" cy="435.9606" fill="#FFFFFF" rx="6" ry="6" style="stroke:#181818;stroke-width:1.5;"/></g><!--link ProjectManager to Service--><g class="link" data-entity-1="ProjectManager" data-entity-2="Service" data-source-line="128" data-uid="lnk64" id="link_ProjectManager_Service"><path d="M1217.1575,746.4404 C1217.7107,747.2646 1218.29,748.1185 1218.8947,748.9992 C1220.104,750.7605 1221.4152,752.6288 1222.823,754.581 C1225.6388,758.4855 1228.8413,762.7256 1232.39,767.1169 C1246.585,784.6819 1266.32,804.6644 1289,815.2494 C1320.51,829.9494 1888.67,838.4194 1913,863.2494 C1934.745,885.4394 1937.0225,920.1394 1933.7288,949.6581 C1932.9053,957.0378 1931.7337,964.0937 1930.431,970.5493 C1930.1053,972.1632 1929.7714,973.7396 1929.4327,975.2741 C1929.3481,975.6578 1929.2631,976.0388 1929.1779,976.4171 C1929.1353,976.6063 1930.4235,970.9442 1930.3807,971.1321" fill="none" id="ProjectManager-to-Service" style="stroke:#181818;stroke-width:1;"/><polygon fill="#181818" points="1929.0499,976.9826,1934.9465,969.094,1930.1589,972.1072,1927.1458,967.3196,1929.0499,976.9826" style="stroke:#181818;stroke-width:1;"/><text fill="#000000" font-family="sans-serif" font-size="13" lengthAdjust="spacing" textLength="104.7681" x="1890.61" y="844.7445">Start/Stop Service</text><ellipse cx="1603.6925" cy="835.4506" fill="#FFFFFF" rx="10" ry="10" style="stroke:#FFFFFF;stroke-width:1;"/><path d="M1610.4211,842.8483 A10,10 0 0 0 1611.0902 828.722" fill="none" style="stroke:#181818;stroke-width:1.5;"/><path d="M1596.9639,828.0529 A10,10 0 0 0 1596.2948 842.1792" fill="none" style="stroke:#181818;stroke-width:1.5;"/><ellipse cx="1603.6925" cy="835.4506" fill="#FFFFFF" rx="6" ry="6" style="stroke:#181818;stroke-width:1.5;"/></g><!--link services to Service--><g class="link" data-entity-1="services" data-entity-2="Service" data-source-line="129" data-uid="lnk65" id="link_services_Service"><path d="M1141.23,751.6694 C1146.56,770.4994 1157.6,799.2994 1178,815.2494 C1241.88,865.1994 1275.48,845.7294 1356,855.2494 C1371.37,857.0694 1901.83,852.5394 1913,863.2494 C1935.425,884.7544 1937.7125,919.4419 1934.2538,949.1256 C1933.3891,956.5466 1932.1652,963.6548 1930.8071,970.1661 C1930.4676,971.7939 1930.1197,973.3844 1929.7669,974.9332 C1929.5905,975.7076 1929.4129,976.4715 1929.2345,977.2245 C1929.1899,977.4127 1929.1452,977.6003 1929.1005,977.7871" fill="none" id="services-Service" style="stroke:#181818;stroke-width:1;stroke-dasharray:7,7;"/></g><!--SRC=[fLTTRXit47xVKmoKXzgk9ASf-c8K1MGdQGmujPjr4hI6OT2xinBhNL8bkNBK942VUe2Y5sbxZnwY9-cG7AwqicmKxOj43kVdc-7ySEsDL7DXH0E5RkPQeNAvMzO81WidrBJ6p4b7-rnEbQWXTmQ9UGJvqZfiu7I1PY7nDiiw0HZakZK5mbFXn024XTpp4E5z1b3fkaG3WsDLjjOPIJhFZ7QwqBKT10w0YzEp8tWzkOoRbxgyRYsS7vqbmhVdvxmapQJ1Rpvcz7DnA2mcSvVUj2VmtZCexSWrEPqvq5NlqAjZt0aFJ4enTsWiu3k7gWmyRePmxQrOTggeXRLqH0n1FIspl9XX8rxXL9ABInYDlkhPEbQMGaMo6mTm05OqSmgXTTg8AMRaLO1yhPtJZSUSTEpjyMflBtlLAYSRXBdHPLjGTF_- -JU_AT3Q_OPefD7DXACxLegkoOBJ8A2a-m4RVTO6vcWgRHeRCg5rmacjx3XxAHGXAU5wwGFp0ub7Ye4TyiAuVS8wXrfMM2oB6dV7sP5G2GeqRUrazCWd3kaZu659k4_qL1QK0058CHC4heRAaACYXNUSnIYY8GXISVvraRsLRWODEX5KxDWGzo4OuN08bIonbcuv17J5c85H29mWHIjW8R4jxD2DjusoGw_Fo88M3Cdk1jI1Zr1Fw2Pa4K5N4kioe22LWfqCuSVnT3pq91bgea5XMuCDrTSG5eAozhecY1HsDZBEdhqBTsyFCYeikWpXIE0ggVpbruJq0FpvbKLbjVbikBvxaiqejw-Iurk5trtDjPN-SeUmN5l_rAspd4DYPy9Wo7XAIrfGZj6LDtEmSq5tosxJkJJi-ZZhoc2z8N3Y06TEQ0eRoVJen5TbNjFDVMrm6Jh1Uak91T7JmBIa8VQEJ-2qgcgfC1rJnHJ1AtzAk6yyRR31D63xHxIhMPFlGtskq56OvfiRapDcbuhIjFAH6HppqI7PeuW4kCUyOUv-Azeu13Yhs-dK9mbrct2oKiyygqZ7VTV0ATx2_DYYWtNpJ6CIF3eJjOyqghlYBvu-_w8dwmazmVEMb6bfyQxmKVwc9qlxJlJj38NR8aAJW8g-9nL8dU29MD0_ckJhtKk0KQbl5VNJ54bgfeFMeXsmI4V_yiDul16DhInhJcyzNpcs_NZTWspzqbVDV2iAWE_Hw56Xvqk8FKaOk3NIeUqu5bB0n1Xz2w-mqAOy5AwORUQ5ttpCKbMeVr4KQbjDV8TrJORUT_TMrr7O-h8C3UP56EgMgzAJcC8olbU6ePa43jkgwghOKoB1PmZvcJVw1Zk3coRZGsHTGw140ijyJ07leG5AZtLpgmXTiFqNGfKrlnm29H8owCDCkRR14rJrmSOf5YF38yrsKzqFJfy5lKwORMm_N77JIw62apHhroVmFWssIavfPEnw4MRjNXgV4J8YdzwgrNEiEvp4mxCuisttrgCEyjVlyInDORkQjdwgzCVnDiDF7ZHC7g1_Vb8m91Dt7m3pn_y4y_b3O0uVCFpdVpBSKOAmBojIopFvKvx8dQR8zAoHz3n3wdRqjyEyuPQn77Pl5R4GilR3WOFrZNQIdYAMqQoFnP3Zn3AX8YuepXQkGz9Q_zvZC5mhn7N8P-cLb0osllb2V5vj7_6lARifbZoYuak-ClxPC7Wh5TLBh05USsi9yuSBtNPV8agNI6a1ZpVeHgYRRVHxlrpY9mBt2sgM1F5ohM54IkGwaGk4D_GX4nZypc_YsVEpF53fFn8c9Bsqqgu44cKbT4JrhxcLy3hsf1I1KPZz5pDPbgWkVMUwW-fUrXw-UxaItdiPxg2-bpDvu7iSTQ-EhyRAxJpU9OwDvzm1dCvHxUSqjzFHHcE3KHHSVVlaePdblYkchvpKCXEYKjWPbfUZZk4V]--></g></svg>